<svg width="252" height="179" viewBox="0 0 252 179" fill="none" xmlns="http://www.w3.org/2000/svg">
<path d="M108.681 3.47003C107.306 5.75319 107.948 16.8037 109.78 22.1006C112.163 28.7675 113.079 34.7037 112.346 38.8134C111.796 41.5532 111.338 42.0098 109.139 42.0098C107.306 42.0098 105.84 41.0052 103.641 38.3568C101.991 36.2563 97.5011 32.8772 93.2858 30.4114C84.8553 25.571 82.1978 23.3792 78.5324 17.991C77.0662 15.8904 76.1498 14.9772 76.4247 15.9818C76.6996 16.9864 77.1578 18.9955 77.5244 20.5481C78.5324 24.7491 80.0902 27.5802 85.68 34.3384C93.0109 43.1971 95.3018 49.4073 92.0946 52.0557C91.0866 52.8777 89.6204 52.6037 85.0386 50.3205C80.9149 48.3114 77.0662 47.3068 71.2931 46.6675C63.2291 45.7542 57.3644 43.5624 53.3324 39.9093C49.6669 36.5302 51.2247 40.1833 55.44 44.6583C57.8226 47.1241 62.5876 50.6859 66.8029 52.8777C70.7433 55.0695 75.7833 58.5399 77.8909 60.7318C81.1898 64.1108 81.5564 64.9328 80.7317 66.4853C79.8153 68.2205 78.8989 68.4032 73.0342 68.2205C68.544 68.1292 63.5956 68.7685 57.5476 70.3211C49.4836 72.3302 48.1091 72.4216 43.344 71.417C40.5033 70.869 38.0291 70.5037 37.7542 70.6864C37.5709 70.869 40.0451 72.3302 43.2524 73.8828C47.5593 75.892 51.2247 76.8966 57.5476 77.5359C67.8109 78.6318 76.0582 81.9195 76.0582 84.9333C76.0582 86.8512 75.6 87.1251 67.6276 89.9563C65.2451 90.7782 60.2967 93.6093 56.6313 96.2578C49.7586 101.189 46.8262 102.651 41.2364 103.747C38.4873 104.295 38.304 104.477 39.8618 105.116C43.344 106.486 50.9498 105.847 58.5556 103.655C67.6276 101.007 75.2335 100.641 77.3411 102.833C79.5404 105.025 79.0822 106.395 75.4167 108.952C71.3847 111.783 67.9026 115.893 65.2451 121.099C62.496 126.396 58.9222 130.505 54.0655 133.61L49.9418 136.259L53.6073 135.62C58.9222 134.706 62.8626 132.697 70.1018 127.309C79.5404 120.185 86.3215 117.902 88.7956 120.916C89.6204 121.829 89.1622 123.29 87.1462 127.309C85.5884 130.14 84.1222 133.976 83.8473 135.894C82.0146 148.771 80.64 152.698 76.2415 158.908L74.6837 161.1L77.7993 159.364C81.5564 157.173 86.5964 151.419 89.0706 146.579C94.1106 136.715 100.8 130.414 104.282 132.332C105.565 133.062 105.748 134.341 105.473 139.638C105.29 144.387 105.748 147.857 107.215 152.606C109.231 158.999 109.414 167.401 107.764 172.15C107.306 173.429 107.764 173.155 109.414 171.237C112.255 168.04 114.179 161.83 115.004 153.246C115.828 144.935 119.494 137.537 123.068 137.172C124.442 136.989 125.542 137.263 125.542 137.811C125.542 140.825 129.94 149.501 133.881 154.524C139.745 161.739 141.028 164.205 141.761 169.41C142.586 175.803 144.144 172.972 144.144 165.118C144.144 161.282 143.503 156.99 142.678 155.072C138.737 145.665 138.737 134.98 142.769 134.432C144.236 134.158 145.885 135.346 148.726 138.359C150.925 140.825 156.148 144.661 160.822 147.401C167.328 151.145 169.711 153.063 172.551 157.081C176.033 162.013 176.125 162.013 175.484 158.908C174.384 153.428 171.818 148.679 166.778 142.469C155.69 128.861 155.69 120.459 166.687 126.03C170.169 127.765 174.476 129.044 179.974 129.775C188.771 130.871 195.277 133.154 198.668 136.259C201.233 138.725 201.233 137.72 198.759 133.702C196.652 130.231 191.887 126.67 184.372 122.925C177.225 119.272 171.177 113.519 171.543 110.596C171.818 108.222 171.91 108.222 179.607 108.222C184.922 108.13 189.687 107.491 194.727 106.03C201.783 103.929 205.907 103.838 212.596 105.573C214.521 106.03 214.337 105.756 211.588 103.838C207.648 101.007 203.708 99.9109 193.078 98.6323C182.906 97.445 176.858 94.7052 176.858 91.4175C176.858 89.317 177.5 88.8603 182.265 87.4904C185.747 86.3945 189.962 84.2027 193.811 81.1889C200.684 75.9833 206.365 73.1522 210.031 73.0609C213.146 73.0609 214.154 71.5996 211.405 70.869C207.281 69.7731 200.959 70.4124 193.811 72.6042C189.321 73.9741 184.281 74.8874 180.707 74.8874C175.392 74.8874 174.934 74.7047 173.926 72.5129C172.918 70.5037 173.101 70.0471 174.567 69.2251C178.141 67.3073 184.739 59.7272 187.213 54.6129C189.779 49.3159 194.727 44.3843 200.042 41.5532L202.975 40.092L199.492 40.5486C194.544 41.1879 187.213 44.7496 182.081 49.042C177.866 52.5124 172.093 55.8001 168.061 56.9874C166.87 57.3527 165.312 56.9874 164.029 55.8915L161.921 54.2476L164.304 50.5945C167.145 46.2108 168.336 42.2838 168.977 35.1603C169.527 28.8588 171.36 23.7445 174.659 19.3608C177.5 15.7078 176.492 15.6165 171.727 19.0869C169.527 20.7307 166.228 24.9318 163.113 30.1374C153.216 46.5762 145.335 49.8639 146.343 36.9869C146.71 32.7858 146.252 29.0415 144.785 22.8313C142.953 15.5251 142.769 13.6986 143.594 8.85829C144.144 5.75319 144.419 3.0134 144.236 2.92207C143.777 2.37411 139.745 9.49757 138.554 12.968C137.913 14.8858 136.996 19.9088 136.538 24.2012C135.622 33.1512 132.781 39.544 129.391 40.0006C127.283 40.366 127.191 40.092 124.167 31.7812C123.343 29.4068 120.593 24.9318 118.119 21.7353C113.079 15.5251 111.063 11.5981 110.055 5.93584C109.689 3.56136 109.231 2.64809 108.681 3.47003Z" fill="#FF5800"/>
</svg>
